Coordinates
version=1
nRows=27
nColumns=38
inDegrees=no

Units are S.I. units (second, meters, Newtons, ...)
If the header above contains a line with 'inDegrees', this indicates whether rotational values are in degrees (yes) or radians (no).

endheader
time	pelvis_tilt	pelvis_list	pelvis_rotation	pelvis_tx	pelvis_ty	pelvis_tz	hip_flexion_r	hip_adduction_r	hip_rotation_r	knee_angle_r	ankle_angle_r	subtalar_angle_r	mtp_angle_r	hip_flexion_l	hip_adduction_l	hip_rotation_l	knee_angle_l	ankle_angle_l	subtalar_angle_l	mtp_angle_l	lumbar_extension	lumbar_bending	lumbar_rotation	arm_flex_r	arm_add_r	arm_rot_r	elbow_flex_r	pro_sup_r	wrist_flex_r	wrist_dev_r	arm_flex_l	arm_add_l	arm_rot_l	elbow_flex_l	pro_sup_l	wrist_flex_l	wrist_dev_l
5	2.96969	1.28063	-1.29072	0.687313	1.69729	0.941513	-0.454885	0.140856	0.00486513	0.239879	-0.1751	0	0	0.0966024	-0.109652	-0.077325	0.241605	-0.268984	0	0	-0.442065	0.0340449	-0.0784974	0.493647	-0.448688	0.324281	1.66438	1.5708	0	0	0.36108	-0.278137	-0.0097603	1.73897	1.5708	0	0
5.01	2.96606	1.28304	-1.28751	0.686127	1.70343	0.94104	-0.458571	0.139619	0.00554426	0.24156	-0.175272	0	0	0.0970675	-0.107325	-0.0749343	0.24616	-0.271747	0	0	-0.439619	0.0338304	-0.0767144	0.488611	-0.451488	0.317763	1.66795	1.5708	0	0	0.361364	-0.275452	-0.00615466	1.74051	1.5708	0	0
5.02	2.96175	1.28576	-1.28389	0.684874	1.70972	0.940609	-0.461754	0.138086	0.005925	0.243756	-0.176155	0	0	0.096598	-0.105103	-0.071704	0.250345	-0.276754	0	0	-0.436623	0.0334328	-0.0739534	0.481579	-0.454474	0.309588	1.67225	1.5708	0	0	0.361826	-0.272465	-0.00140005	1.74151	1.5708	0	0
5.03	2.95809	1.28792	-1.28141	0.683583	1.71611	0.94025	-0.465262	0.135956	0.00530342	0.246754	-0.177878	0	0	0.0935509	-0.102874	-0.0677972	0.252258	-0.28501	0	0	-0.433272	0.0326906	-0.0705132	0.474018	-0.457702	0.301673	1.67569	1.5708	0	0	0.362301	-0.268887	0.00389384	1.74104	1.5708	0	0
5.04	2.95529	1.28999	-1.28037	0.682269	1.72264	0.93994	-0.468735	0.133328	0.00487125	0.250451	-0.179928	0	0	0.0883744	-0.10047	-0.0637047	0.251103	-0.292499	0	0	-0.430009	0.0318516	-0.0676834	0.467853	-0.461021	0.296355	1.6786	1.5708	0	0	0.361218	-0.265366	0.00753261	1.74154	1.5708	0	0
5.05	2.9531	1.29265	-1.28035	0.680909	1.72932	0.939638	-0.471268	0.130064	0.00451132	0.25534	-0.182385	0	0	0.0822739	-0.0975504	-0.0594059	0.247235	-0.299175	0	0	-0.426195	0.0306992	-0.0651672	0.462015	-0.46432	0.291882	1.68144	1.5708	0	0	0.359188	-0.262009	0.0103891	1.74283	1.5708	0	0
5.06	2.95107	1.2958	-1.28071	0.679444	1.73613	0.939377	-0.472847	0.126164	0.00495083	0.261295	-0.185188	0	0	0.0758696	-0.0940937	-0.055351	0.24151	-0.305745	0	0	-0.42176	0.029302	-0.0630697	0.456039	-0.467395	0.287514	1.68389	1.5708	0	0	0.356165	-0.258709	0.0127018	1.74478	1.5708	0	0
5.07	2.94937	1.29921	-1.28176	0.677871	1.74303	0.939146	-0.473716	0.121895	0.00645133	0.268387	-0.187588	0	0	0.0693146	-0.0902856	-0.0526995	0.235032	-0.312798	0	0	-0.417067	0.0277286	-0.0610585	0.450316	-0.471258	0.284093	1.68623	1.5708	0	0	0.352068	-0.255082	0.0145615	1.74752	1.5708	0	0
5.08	2.94777	1.30343	-1.28285	0.676197	1.75007	0.93892	-0.473461	0.117411	0.00869628	0.276526	-0.189727	0	0	0.0632782	-0.086058	-0.0511508	0.228333	-0.320444	0	0	-0.411618	0.026087	-0.0592528	0.444089	-0.476168	0.280607	1.68918	1.5708	0	0	0.346974	-0.251133	0.0162716	1.75089	1.5708	0	0
5.09	2.94703	1.30957	-1.2831	0.674385	1.75744	0.938603	-0.471654	0.113007	0.00928898	0.284455	-0.192012	0	0	0.059287	-0.0809994	-0.0497457	0.222315	-0.3287	0	0	-0.40353	0.0240221	-0.0593726	0.435397	-0.479231	0.275817	1.69212	1.5708	0	0	0.340711	-0.247765	0.0183128	1.75421	1.5708	0	0
5.1	2.94662	1.31911	-1.28097	0.672402	1.76531	0.938095	-0.466975	0.108726	0.00672092	0.291867	-0.195502	0	0	0.0589725	-0.0748036	-0.0469531	0.216886	-0.338989	0	0	-0.39064	0.0213172	-0.0622949	0.42329	-0.480326	0.269722	1.69465	1.5708	0	0	0.332652	-0.245275	0.0209623	1.75737	1.5708	0	0
5.11	2.94914	1.32309	-1.28357	0.670441	1.7727	0.937868	-0.466864	0.10409	0.00850097	0.301106	-0.199985	0	0	0.0530993	-0.0700485	-0.0479411	0.212201	-0.351086	0	0	-0.377599	0.0181221	-0.0602769	0.41435	-0.485741	0.267858	1.68815	1.5708	0	0	0.331262	-0.241375	0.0302684	1.74712	1.5708	0	0
5.12	2.95037	1.3264	-1.2861	0.668497	1.77997	0.937795	-0.466442	0.0994337	0.013881	0.31176	-0.204017	0	0	0.0472179	-0.0664473	-0.0510787	0.209062	-0.3609	0	0	-0.36973	0.0154345	-0.0563873	0.403197	-0.490824	0.260638	1.68872	1.5708	0	0	0.329666	-0.236826	0.038475	1.74287	1.5708	0	0
5.13	2.95372	1.32858	-1.29134	0.66661	1.78714	0.937819	-0.466214	0.0943209	0.0204231	0.324377	-0.208416	0	0	0.0404736	-0.0633488	-0.0548293	0.206642	-0.372922	0	0	-0.363651	0.0123229	-0.0508389	0.391463	-0.49623	0.251695	1.69029	1.5708	0	0	0.329647	-0.23211	0.047948	1.73799	1.5708	0	0
5.14	2.95924	1.33126	-1.29774	0.664667	1.7944	0.937841	-0.465299	0.0889255	0.025642	0.337449	-0.213406	0	0	0.0348157	-0.0600391	-0.0570755	0.205424	-0.386364	0	0	-0.357308	0.00881285	-0.0460576	0.378906	-0.501365	0.241712	1.69228	1.5708	0	0	0.329593	-0.227538	0.0573861	1.73339	1.5708	0	0
5.15	2.96585	1.33384	-1.30467	0.662651	1.80167	0.937911	-0.46359	0.0835545	0.0298857	0.352064	-0.219062	0	0	0.0296176	-0.0568533	-0.0586529	0.205023	-0.400537	0	0	-0.351151	0.00529581	-0.0421643	0.36671	-0.506356	0.232655	1.69393	1.5708	0	0	0.329293	-0.223415	0.0666101	1.72891	1.5708	0	0
5.16	2.97508	1.3338	-1.31583	0.660657	1.80862	0.938161	-0.462797	0.077265	0.0363002	0.369779	-0.224976	0	0	0.0219707	-0.0536908	-0.0613894	0.205534	-0.411803	0	0	-0.348942	0.00168044	-0.0370138	0.356318	-0.512165	0.224107	1.69613	1.5708	0	0	0.329979	-0.219369	0.0754439	1.7251	1.5708	0	0
5.17	2.98642	1.33128	-1.33007	0.658646	1.81529	0.938582	-0.462867	0.0703978	0.0439791	0.390341	-0.231301	0	0	0.012474	-0.050291	-0.0647591	0.208525	-0.415495	0	0	-0.350419	-0.00174977	-0.0308665	0.345976	-0.516227	0.214294	1.69917	1.5708	0	0	0.331418	-0.214927	0.0838381	1.72187	1.5708	0	0
5.18	3.00006	1.33094	-1.34277	0.656465	1.82231	0.938899	-0.461311	0.0639867	0.0465688	0.409952	-0.23921	0	0	0.00663717	-0.0455458	-0.0644658	0.215133	-0.411742	0	0	-0.348785	-0.00581748	-0.0284293	0.333302	-0.519671	0.203612	1.70211	1.5708	0	0	0.331563	-0.21138	0.0926449	1.71868	1.5708	0	0
5.19	3.01585	1.33162	-1.35609	0.654159	1.82942	0.939245	-0.458047	0.057245	0.0471678	0.430515	-0.248936	0	0	0.00303417	-0.0399229	-0.0647434	0.224472	-0.405035	0	0	-0.345948	-0.0103105	-0.0278304	0.3205	-0.52358	0.193805	1.70463	1.5708	0	0	0.330999	-0.208277	0.101288	1.7155	1.5708	0	0
5.2	3.03189	1.33103	-1.36996	0.651787	1.83637	0.939755	-0.454427	0.0503687	0.048384	0.453204	-0.260618	0	0	-0.00114099	-0.0344975	-0.0688184	0.235612	-0.397215	0	0	-0.344858	-0.0144332	-0.0272891	0.308502	-0.526269	0.184519	1.70655	1.5708	0	0	0.330638	-0.205119	0.109374	1.71247	1.5708	0	0
5.21	3.04985	1.32937	-1.38543	0.649417	1.84319	0.940381	-0.45065	0.0432228	0.0493852	0.477571	-0.274139	0	0	-0.00646004	-0.0290833	-0.0764403	0.247262	-0.38897	0	0	-0.345361	-0.0188639	-0.0270675	0.29698	-0.528899	0.174626	1.70863	1.5708	0	0	0.330725	-0.201991	0.11741	1.7095	1.5708	0	0
5.22	3.06859	1.32718	-1.40092	0.647076	1.84995	0.941066	-0.446108	0.0360769	0.0493467	0.503828	-0.289284	0	0	-0.0124885	-0.0241083	-0.0868881	0.259361	-0.380494	0	0	-0.346565	-0.0233753	-0.0271862	0.285489	-0.531494	0.163872	1.71093	1.5708	0	0	0.33151	-0.198819	0.125631	1.70614	1.5708	0	0
5.23	3.08413	1.32384	-1.41316	0.644708	1.85652	0.94179	-0.44074	0.0293134	0.0489844	0.532618	-0.30751	0	0	-0.0190409	-0.0209648	-0.101306	0.273558	-0.370649	0	0	-0.348809	-0.0267658	-0.0268283	0.274658	-0.533727	0.153019	1.71268	1.5708	0	0	0.333611	-0.195285	0.134267	1.70175	1.5708	0	0
5.24	3.09456	1.31984	-1.42041	0.642385	1.86292	0.942528	-0.434046	0.0236411	0.0492096	0.563508	-0.326469	0	0	-0.0250479	-0.0204298	-0.119494	0.290255	-0.361069	0	0	-0.351685	-0.0286987	-0.0267725	0.265695	-0.536151	0.143577	1.71348	1.5708	0	0	0.335854	-0.191753	0.142001	1.69757	1.5708	0	0
5.25	3.10125	1.31642	-1.42336	0.640211	1.86921	0.943223	-0.424698	0.0193262	0.0490882	0.596902	-0.346821	0	0	-0.02969	-0.0216083	-0.137456	0.30777	-0.351649	0	0	-0.354134	-0.0298241	-0.0272702	0.257167	-0.537911	0.134941	1.7137	1.5708	0	0	0.338138	-0.188572	0.149762	1.69337	1.5708	0	0
5.26	3.09548	1.31216	-1.41444	0.637849	1.87494	0.944494	-0.437246	0.0134707	0.0276565	0.56887	-0.390259	0	0	-0.0367389	-0.0247524	-0.148202	0.318226	-0.344797	0	0	-0.359376	-0.0269737	-0.0268622	0.250263	-0.541015	0.126326	1.71419	1.5708	0	0	0.34078	-0.183881	0.156765	1.689	1.5708	0	0
